<mxfile host="app.diagrams.net" modified="2023-12-16T23:10:16.073Z" agent="Mozilla/5.0 (Windows NT 10.0; Win64; x64) AppleWebKit/537.36 (KHTML, like Gecko) Chrome/120.0.0.0 Safari/537.36" etag="9LJU54EYWRvUlmFmv39s" version="22.1.11" type="device">
  <diagram name="Страница — 1" id="zVMX8pp5z08NAUYNwmXa">
    <mxGraphModel dx="712" dy="818" grid="1" gridSize="10" guides="1" tooltips="1" connect="1" arrows="1" fold="1" page="1" pageScale="1" pageWidth="827" pageHeight="1169" math="0" shadow="0">
      <root>
        <mxCell id="0" />
        <mxCell id="1" parent="0" />
        <mxCell id="3V1n29W3ZNlLV-hattE4-3" value="" style="shape=cube;whiteSpace=wrap;html=1;boundedLbl=1;backgroundOutline=1;darkOpacity=0.05;darkOpacity2=0.1;flipH=1;" parent="1" vertex="1">
          <mxGeometry x="70" y="260" width="330" height="190" as="geometry" />
        </mxCell>
        <mxCell id="3V1n29W3ZNlLV-hattE4-4" value="&amp;lt;&amp;lt;устройство&amp;gt;&amp;gt;&lt;br&gt;&lt;b&gt;ПК/ ноутбук&lt;/b&gt;" style="text;html=1;align=center;verticalAlign=middle;resizable=0;points=[];autosize=1;strokeColor=none;fillColor=none;" parent="1" vertex="1">
          <mxGeometry x="70" y="280" width="110" height="40" as="geometry" />
        </mxCell>
        <mxCell id="3V1n29W3ZNlLV-hattE4-5" value="" style="shape=cube;whiteSpace=wrap;html=1;boundedLbl=1;backgroundOutline=1;darkOpacity=0.05;darkOpacity2=0.1;flipH=1;" parent="1" vertex="1">
          <mxGeometry x="130" y="340" width="212" height="110" as="geometry" />
        </mxCell>
        <mxCell id="3V1n29W3ZNlLV-hattE4-6" value="&amp;lt;&amp;lt;среда выполнения&amp;gt;&amp;gt;&lt;br&gt;&lt;b&gt;ОС Windows/Linux/Mac&lt;/b&gt;" style="text;html=1;align=center;verticalAlign=middle;resizable=0;points=[];autosize=1;strokeColor=none;fillColor=none;" parent="1" vertex="1">
          <mxGeometry x="122" y="361.5" width="160" height="40" as="geometry" />
        </mxCell>
        <mxCell id="3V1n29W3ZNlLV-hattE4-9" value="" style="shape=cube;whiteSpace=wrap;html=1;boundedLbl=1;backgroundOutline=1;darkOpacity=0.05;darkOpacity2=0.1;flipH=1;" parent="1" vertex="1">
          <mxGeometry x="800" y="230" width="510" height="520" as="geometry" />
        </mxCell>
        <mxCell id="3V1n29W3ZNlLV-hattE4-10" value="&amp;lt;&amp;lt;устройство&amp;gt;&amp;gt;&lt;br&gt;&lt;b&gt;Сервер приложения на Python&lt;/b&gt;" style="text;html=1;align=center;verticalAlign=middle;resizable=0;points=[];autosize=1;strokeColor=none;fillColor=none;" parent="1" vertex="1">
          <mxGeometry x="820" y="250" width="210" height="40" as="geometry" />
        </mxCell>
        <mxCell id="3V1n29W3ZNlLV-hattE4-11" value="" style="shape=cube;whiteSpace=wrap;html=1;boundedLbl=1;backgroundOutline=1;darkOpacity=0.05;darkOpacity2=0.1;flipH=1;" parent="1" vertex="1">
          <mxGeometry x="912.25" y="290" width="323.5" height="250" as="geometry" />
        </mxCell>
        <mxCell id="3V1n29W3ZNlLV-hattE4-12" value="&amp;lt;&amp;lt;среда выполнения&amp;gt;&amp;gt;&lt;br&gt;&lt;b&gt;ASP.NET Core&lt;/b&gt;" style="text;html=1;align=center;verticalAlign=middle;resizable=0;points=[];autosize=1;strokeColor=none;fillColor=none;" parent="1" vertex="1">
          <mxGeometry x="960" y="365.5" width="160" height="40" as="geometry" />
        </mxCell>
        <mxCell id="3V1n29W3ZNlLV-hattE4-13" value="&amp;lt;&amp;lt;приложение&amp;gt;&amp;gt;&amp;nbsp; &amp;nbsp; &amp;nbsp;&lt;br style=&quot;border-color: var(--border-color);&quot;&gt;&lt;b style=&quot;border-color: var(--border-color);&quot;&gt;SneackersShop&lt;/b&gt;&lt;b&gt;.exe&amp;nbsp; &amp;nbsp;&amp;nbsp;&lt;/b&gt;" style="html=1;dropTarget=0;whiteSpace=wrap;" parent="1" vertex="1">
          <mxGeometry x="1000" y="405.5" width="148" height="70" as="geometry" />
        </mxCell>
        <mxCell id="3V1n29W3ZNlLV-hattE4-14" value="" style="shape=module;jettyWidth=8;jettyHeight=4;" parent="3V1n29W3ZNlLV-hattE4-13" vertex="1">
          <mxGeometry x="1" width="20" height="20" relative="1" as="geometry">
            <mxPoint x="-27" y="7" as="offset" />
          </mxGeometry>
        </mxCell>
        <mxCell id="3V1n29W3ZNlLV-hattE4-17" value="" style="shape=cube;whiteSpace=wrap;html=1;boundedLbl=1;backgroundOutline=1;darkOpacity=0.05;darkOpacity2=0.1;flipH=1;" parent="1" vertex="1">
          <mxGeometry x="954" y="610" width="230" height="121" as="geometry" />
        </mxCell>
        <mxCell id="3V1n29W3ZNlLV-hattE4-18" value="&amp;lt;&amp;lt;среда выполнения&amp;gt;&amp;gt;&lt;br&gt;&lt;b&gt;PostgressSQL Database&lt;/b&gt;" style="text;html=1;align=center;verticalAlign=middle;resizable=0;points=[];autosize=1;strokeColor=none;fillColor=none;" parent="1" vertex="1">
          <mxGeometry x="954" y="633.5" width="160" height="40" as="geometry" />
        </mxCell>
        <mxCell id="XhW1k-gpU6BOyXQMlyqp-7" style="edgeStyle=orthogonalEdgeStyle;rounded=0;orthogonalLoop=1;jettySize=auto;html=1;endArrow=diamondThin;endFill=1;strokeWidth=1;endSize=16;" parent="1" source="XhW1k-gpU6BOyXQMlyqp-5" target="3V1n29W3ZNlLV-hattE4-3" edge="1">
          <mxGeometry relative="1" as="geometry">
            <Array as="points">
              <mxPoint x="460" y="365" />
              <mxPoint x="460" y="365" />
            </Array>
          </mxGeometry>
        </mxCell>
        <mxCell id="XhW1k-gpU6BOyXQMlyqp-5" value="" style="shape=cube;whiteSpace=wrap;html=1;boundedLbl=1;backgroundOutline=1;darkOpacity=0.05;darkOpacity2=0.1;flipH=1;" parent="1" vertex="1">
          <mxGeometry x="480" y="320" width="200" height="95" as="geometry" />
        </mxCell>
        <mxCell id="XhW1k-gpU6BOyXQMlyqp-10" value="&amp;lt;&amp;lt;Веб-браузер&amp;gt;&amp;gt;" style="text;html=1;align=center;verticalAlign=middle;resizable=0;points=[];autosize=1;strokeColor=none;fillColor=none;" parent="1" vertex="1">
          <mxGeometry x="480" y="339.5" width="120" height="30" as="geometry" />
        </mxCell>
        <mxCell id="9QPx1-l8X2XalRhPDHzs-1" value="HTTPS протокол" style="text;html=1;strokeColor=none;fillColor=none;align=center;verticalAlign=middle;whiteSpace=wrap;rounded=0;" parent="1" vertex="1">
          <mxGeometry x="720" y="340" width="60" height="30" as="geometry" />
        </mxCell>
        <mxCell id="9QPx1-l8X2XalRhPDHzs-10" value="" style="rounded=0;whiteSpace=wrap;html=1;fillColor=none;" parent="1" vertex="1">
          <mxGeometry x="932" y="340" width="266" height="174.25" as="geometry" />
        </mxCell>
        <mxCell id="9QPx1-l8X2XalRhPDHzs-11" value="&amp;lt;&amp;lt;вебсайт&amp;gt;&amp;gt;&lt;br&gt;&lt;b&gt;SneackersShop&lt;/b&gt;" style="text;html=1;align=center;verticalAlign=middle;resizable=0;points=[];autosize=1;strokeColor=none;fillColor=none;" parent="1" vertex="1">
          <mxGeometry x="920" y="304.75" width="110" height="40" as="geometry" />
        </mxCell>
        <mxCell id="9QPx1-l8X2XalRhPDHzs-13" style="edgeStyle=orthogonalEdgeStyle;rounded=0;orthogonalLoop=1;jettySize=auto;html=1;exitX=1;exitY=0.361;exitDx=0;exitDy=0;exitPerimeter=0;endArrow=none;endFill=0;" parent="1" source="3V1n29W3ZNlLV-hattE4-11" edge="1">
          <mxGeometry relative="1" as="geometry">
            <mxPoint x="680" y="370" as="targetPoint" />
            <Array as="points">
              <mxPoint x="680" y="379" />
            </Array>
          </mxGeometry>
        </mxCell>
        <mxCell id="9QPx1-l8X2XalRhPDHzs-14" value="" style="shape=cube;whiteSpace=wrap;html=1;boundedLbl=1;backgroundOutline=1;darkOpacity=0.05;darkOpacity2=0.1;flipH=1;" parent="1" vertex="1">
          <mxGeometry x="290" y="492" width="330" height="186" as="geometry" />
        </mxCell>
        <mxCell id="9QPx1-l8X2XalRhPDHzs-15" value="&amp;lt;&amp;lt;устройство&amp;gt;&amp;gt;&lt;br&gt;&lt;b&gt;Смартфон&lt;/b&gt;" style="text;html=1;align=center;verticalAlign=middle;resizable=0;points=[];autosize=1;strokeColor=none;fillColor=none;" parent="1" vertex="1">
          <mxGeometry x="290" y="512" width="110" height="40" as="geometry" />
        </mxCell>
        <mxCell id="9QPx1-l8X2XalRhPDHzs-16" value="" style="shape=cube;whiteSpace=wrap;html=1;boundedLbl=1;backgroundOutline=1;darkOpacity=0.05;darkOpacity2=0.1;flipH=1;" parent="1" vertex="1">
          <mxGeometry x="350" y="572" width="212" height="106" as="geometry" />
        </mxCell>
        <mxCell id="9QPx1-l8X2XalRhPDHzs-17" value="&amp;lt;&amp;lt;среда выполнения&amp;gt;&amp;gt;&lt;br&gt;&lt;b&gt;ОС Android/ iOS&lt;/b&gt;" style="text;html=1;align=center;verticalAlign=middle;resizable=0;points=[];autosize=1;strokeColor=none;fillColor=none;" parent="1" vertex="1">
          <mxGeometry x="338" y="593.5" width="160" height="40" as="geometry" />
        </mxCell>
        <mxCell id="9QPx1-l8X2XalRhPDHzs-18" style="edgeStyle=orthogonalEdgeStyle;rounded=0;orthogonalLoop=1;jettySize=auto;html=1;endArrow=diamondThin;endFill=1;strokeWidth=1;endSize=16;exitX=0.59;exitY=0.988;exitDx=0;exitDy=0;exitPerimeter=0;" parent="1" source="XhW1k-gpU6BOyXQMlyqp-5" edge="1">
          <mxGeometry relative="1" as="geometry">
            <mxPoint x="490" y="375" as="sourcePoint" />
            <mxPoint x="450" y="490" as="targetPoint" />
            <Array as="points">
              <mxPoint x="562" y="460" />
              <mxPoint x="450" y="460" />
            </Array>
          </mxGeometry>
        </mxCell>
        <mxCell id="9QPx1-l8X2XalRhPDHzs-19" style="edgeStyle=orthogonalEdgeStyle;rounded=0;orthogonalLoop=1;jettySize=auto;html=1;entryX=0;entryY=0;entryDx=167.5;entryDy=239.5;entryPerimeter=0;endArrow=none;endFill=0;" parent="1" source="3V1n29W3ZNlLV-hattE4-17" target="3V1n29W3ZNlLV-hattE4-11" edge="1">
          <mxGeometry relative="1" as="geometry" />
        </mxCell>
        <mxCell id="9QPx1-l8X2XalRhPDHzs-21" value="ODBC" style="text;html=1;strokeColor=none;fillColor=none;align=center;verticalAlign=middle;whiteSpace=wrap;rounded=0;" parent="1" vertex="1">
          <mxGeometry x="1010" y="555" width="60" height="30" as="geometry" />
        </mxCell>
        <mxCell id="9QPx1-l8X2XalRhPDHzs-23" value="TCP/IP&lt;br&gt;протокол" style="text;html=1;strokeColor=none;fillColor=none;align=center;verticalAlign=middle;whiteSpace=wrap;rounded=0;" parent="1" vertex="1">
          <mxGeometry x="1080" y="555" width="60" height="30" as="geometry" />
        </mxCell>
        <mxCell id="vpKWL-grqfSpfSpKWeJj-11" value="&lt;span style=&quot;border-color: var(--border-color);&quot;&gt;&amp;lt;&amp;lt;набор правил&amp;gt;&amp;gt;&lt;br&gt;&lt;b&gt;REST API&lt;/b&gt;&lt;/span&gt;" style="text;html=1;align=center;verticalAlign=middle;resizable=0;points=[];autosize=1;strokeColor=none;fillColor=none;" vertex="1" parent="1">
          <mxGeometry x="925" y="335" width="130" height="40" as="geometry" />
        </mxCell>
        <mxCell id="vpKWL-grqfSpfSpKWeJj-12" value="" style="rounded=0;whiteSpace=wrap;html=1;fillColor=none;" vertex="1" parent="1">
          <mxGeometry x="964" y="369.5" width="220" height="120" as="geometry" />
        </mxCell>
      </root>
    </mxGraphModel>
  </diagram>
</mxfile>
